<svg xmlns="http://www.w3.org/2000/svg" viewBox="0 0 1024 1024" width="1024" height="1024">
  <!-- Alt 31 — refinement of 21: deeper navy at the top, slightly warmer
       sky at the apex, and the bloom tightened (smaller radius). -->
  <defs>
    <linearGradient id="bg" x1="0" y1="0" x2="0" y2="1">
      <stop offset="0" stop-color="#111119"/>
      <stop offset="1" stop-color="#06060A"/>
    </linearGradient>
    <linearGradient id="v" gradientUnits="userSpaceOnUse" x1="0" y1="300" x2="0" y2="724">
      <stop offset="0" stop-color="#0F2464"/>
      <stop offset="0.6" stop-color="#3B82F6"/>
      <stop offset="1" stop-color="#9BD1FF"/>
    </linearGradient>
    <filter id="glow" x="-60%" y="-60%" width="220%" height="220%">
      <feGaussianBlur stdDeviation="18"/>
    </filter>
  </defs>
  <rect x="100" y="100" width="824" height="824" rx="186" fill="url(#bg)"/>
  <rect x="100" y="100" width="824" height="824" rx="186" fill="none"
        stroke="#FFFFFF" stroke-opacity="0.06" stroke-width="4"/>
  <g fill="#2E6BFF" filter="url(#glow)" opacity="0.4">
    <rect x="258" y="300" width="60" height="180" rx="30"/>
    <rect x="370" y="300" width="60" height="300" rx="30"/>
    <rect x="482" y="300" width="60" height="424" rx="30"/>
    <rect x="594" y="300" width="60" height="300" rx="30"/>
    <rect x="706" y="300" width="60" height="180" rx="30"/>
  </g>
  <g fill="url(#v)">
    <rect x="258" y="300" width="60" height="180" rx="30"/>
    <rect x="370" y="300" width="60" height="300" rx="30"/>
    <rect x="482" y="300" width="60" height="424" rx="30"/>
    <rect x="594" y="300" width="60" height="300" rx="30"/>
    <rect x="706" y="300" width="60" height="180" rx="30"/>
  </g>
</svg>
